<?xml version="1.0" encoding="utf-8"?>
<!-- Generator: Adobe Illustrator 28.0.0, SVG Export Plug-In . SVG Version: 6.00 Build 0)  -->
<svg version="1.1" id="Layer_1" xmlns="http://www.w3.org/2000/svg" xmlns:xlink="http://www.w3.org/1999/xlink" x="0px" y="0px"
	 viewBox="0 0 841.89 219.02" style="enable-background:new 0 0 841.89 219.02;" xml:space="preserve">
<style type="text/css">
	.st0{fill:#FFFFFF;stroke:#FFFFFF;stroke-miterlimit:10;}
</style>
<g>
	<g>
		<path class="st0" d="M375.69,95.58c-0.49-2.32-1.41-4.46-2.75-6.4c-1.35-1.94-3.21-3.59-5.59-4.94c-2.38-1.35-5.4-2.03-9.07-2.03
			h-58.49c-3.78,0-6.83,0.68-9.15,2.03c-2.32,1.35-4.16,3-5.51,4.94c-1.35,1.94-2.27,4.08-2.75,6.4c-0.49,2.32-0.73,4.46-0.73,6.4
			v27.54c0,2.16-0.76,4-2.27,5.51c-1.51,1.51-3.35,2.27-5.51,2.27c-2.16,0-4-0.75-5.51-2.27c-1.51-1.51-2.27-3.35-2.27-5.51v-27.54
			c0-4.1,0.67-8.24,2.03-12.39c1.35-4.16,3.32-7.94,5.91-11.34c2.59-3.4,5.72-6.18,9.4-8.34c3.67-2.16,7.83-3.24,12.48-3.24h67.89
			c4.43,0.22,8.37,1.43,11.83,3.65c3.46,2.22,6.4,5,8.83,8.34c2.43,3.35,4.29,7.08,5.59,11.18c1.3,4.11,1.94,8.16,1.94,12.15v27.54
			c0,2.16-0.76,4-2.27,5.51c-1.51,1.51-3.35,2.27-5.51,2.27c-2.16,0-4-0.75-5.51-2.27c-1.51-1.51-2.27-3.35-2.27-5.51v-27.54
			C376.42,100.04,376.18,97.91,375.69,95.58z"/>
		<path class="st0" d="M441.55,82.22c-3.78,0-6.83,0.68-9.15,2.03c-2.32,1.35-4.16,3-5.51,4.94c-1.35,1.94-2.27,4.08-2.75,6.4
			c-0.49,2.32-0.73,4.46-0.73,6.4c0,1.94,0.24,4.08,0.73,6.4c0.49,2.32,1.4,4.46,2.75,6.4c1.35,1.94,3.18,3.59,5.51,4.94
			c2.32,1.35,5.37,2.03,9.15,2.03h89.27c2.16,0,3.99,0.76,5.51,2.27c1.51,1.51,2.27,3.35,2.27,5.51c0,2.16-0.76,4-2.27,5.51
			c-1.51,1.51-3.35,2.27-5.51,2.27h-94.46c-4.43,0-8.37-1.08-11.83-3.24c-3.46-2.16-6.4-4.94-8.83-8.34
			c-2.43-3.4-4.29-7.21-5.59-11.42c-1.3-4.21-1.94-8.32-1.94-12.31c0-4.1,0.67-8.24,2.03-12.39c1.35-4.16,3.32-7.94,5.91-11.34
			c2.59-3.4,5.72-6.18,9.4-8.34c3.67-2.16,7.83-3.24,12.48-3.24h92.84c2.16,0,3.99,0.76,5.51,2.27c1.51,1.51,2.27,3.35,2.27,5.51
			c0,2.16-0.76,4-2.27,5.51c-1.51,1.51-3.35,2.27-5.51,2.27H441.55z M529.53,96.47c1.51,1.51,2.27,3.35,2.27,5.51
			c0,2.16-0.76,4-2.27,5.51c-1.51,1.51-3.35,2.27-5.51,2.27h-80.69c-2.16,0-4-0.75-5.51-2.27c-1.51-1.51-2.27-3.35-2.27-5.51
			c0-2.16,0.75-3.99,2.27-5.51c1.51-1.51,3.35-2.27,5.51-2.27h80.69C526.18,94.21,528.01,94.96,529.53,96.47z"/>
		<path class="st0" d="M567.93,108.06c-2.59-1.13-4.86-2.67-6.81-4.62c-1.94-1.94-3.48-4.21-4.62-6.81c-1.13-2.59-1.7-5.4-1.7-8.42
			c0-3.02,0.57-5.83,1.7-8.43c1.13-2.59,2.67-4.86,4.62-6.8c1.94-1.94,4.21-3.48,6.81-4.62c2.59-1.13,5.4-1.7,8.42-1.7h98.35
			c2.16,0,3.99,0.76,5.51,2.27c1.51,1.51,2.27,3.35,2.27,5.51c0,2.16-0.76,4-2.27,5.51c-1.51,1.51-3.35,2.27-5.51,2.27h-98.67
			c-1.62,0-3.05,0.57-4.29,1.7c-1.24,1.13-1.86,2.57-1.86,4.29c0,1.62,0.62,3.02,1.86,4.21c1.24,1.19,2.67,1.78,4.29,1.78h89.6
			c3.02,0,5.86,0.57,8.51,1.7c2.65,1.13,4.94,2.67,6.89,4.62c1.94,1.94,3.48,4.24,4.62,6.89c1.13,2.65,1.7,5.48,1.7,8.51
			c0,3.03-0.57,5.83-1.7,8.43c-1.13,2.59-2.67,4.86-4.62,6.8c-1.94,1.94-4.24,3.46-6.89,4.54c-2.65,1.08-5.48,1.62-8.51,1.62h-98.18
			c-2.16,0-4-0.75-5.51-2.27c-1.51-1.51-2.27-3.35-2.27-5.51c0-2.16,0.75-4,2.27-5.51c1.51-1.51,3.35-2.27,5.51-2.27h98.83
			c1.62,0,3.02-0.57,4.21-1.7c1.19-1.13,1.78-2.51,1.78-4.13c0-1.73-0.59-3.18-1.78-4.37c-1.19-1.19-2.59-1.78-4.21-1.78h-89.92
			C573.33,109.76,570.52,109.19,567.93,108.06z"/>
		<path class="st0" d="M822.78,66.66c2.16,0,4,0.76,5.51,2.27c1.51,1.51,2.27,3.35,2.27,5.51c0,2.05-0.7,3.81-2.11,5.27
			c-1.4,1.46-3.08,2.3-5.02,2.51h-32.57c-3.24,0.22-5.91,1-8.02,2.35c-2.11,1.35-3.75,3-4.94,4.94c-1.19,1.94-2,4.05-2.43,6.32
			c-0.43,2.27-0.65,4.32-0.65,6.16v27.54c0,2.16-0.76,4-2.27,5.51c-1.51,1.51-3.35,2.27-5.51,2.27c-2.16,0-4-0.75-5.51-2.27
			c-1.51-1.51-2.27-3.35-2.27-5.51v-27.54c0-3.35,0.43-6.72,1.3-10.13c0.86-3.4,2.16-6.61,3.89-9.64h-53.14
			c-2.16,0-4-0.75-5.51-2.27c-1.51-1.51-2.27-3.35-2.27-5.51c0-2.16,0.75-3.99,2.27-5.51c1.51-1.51,3.35-2.27,5.51-2.27H822.78z"/>
	</g>
	<g>
		<path class="st0" d="M180.22,189.06c-16.6-18.11-32.82-35.81-49.03-53.5c1.93-1.84,3.67-3.51,5.78-5.53
			c18.04,19.65,36.31,39.55,54.57,59.44c-27.49,27.95-85.74,39.79-131.46,7.46C12.35,163.18,0.59,96.59,34.15,48.78
			C67.99,0.57,134.36-11.39,182.49,22.27c49.31,34.48,56.87,97.6,31.98,139.45c-0.75-0.67-1.41-1.38-2.18-1.93
			c-3.32-2.34-3.07-4.74-1.38-8.34c27.38-58.05-8.42-127.48-71.34-138.66C85.48,3.19,34.44,38.59,24.48,92.63
			c-9.67,52.43,26.12,104.31,78.62,113.96c26.22,4.82,50.53-0.06,72.9-14.56C177.31,191.18,178.56,190.23,180.22,189.06z"/>
		<path class="st0" d="M63.9,50.35c19.57,21.33,38.44,41.89,57.49,62.67c-2.05,1.67-4.02,3.28-6.21,5.08
			c-13.77-14.99-28.1-30.59-43.12-46.94c0,32.38,0,63.7,0,95.44c-2.86,0-5.35,0-8.16,0C63.9,128.16,63.9,89.79,63.9,50.35z"/>
		<path class="st0" d="M173.21,153.09c-5.18-4.6-8.28-9.12-8.14-16.44c0.51-27.33,0.21-54.67,0.21-82.01c0-1.56,0-3.12,0-5.01
			c2.77,0,5.15,0,7.93,0C173.21,83.87,173.21,118.19,173.21,153.09z"/>
	</g>
	<path class="st0" d="M370,152.74c50.37-3.4,127.15-1.58,178.32-2c29.48,0,105.22,0,133.74,0c6.99,0.3,26.58,1.14,33.44,1.43
		c0,0,11.15,0.57,11.15,0.57l-11.15,0.56c-6.83,0.29-26.3,1.13-33.44,1.44c-28.18,0-104.56,0-133.74,0
		C496.98,154.32,420.64,156.14,370,152.74L370,152.74z"/>
</g>
<g>
	<path class="st0" d="M268.79,177.36v-11.64h1.22l8.71,7.79c0.2,0.18,0.41,0.39,0.63,0.64c0.22,0.25,0.45,0.52,0.69,0.83
		c-0.06-0.37-0.1-0.77-0.13-1.17c-0.03-0.41-0.04-0.97-0.04-1.69v-6.39h1.78v11.64h-1.09l-8.94-8.09c-0.04-0.04-0.11-0.1-0.2-0.18
		c-0.44-0.4-0.77-0.77-0.98-1.13c0.04,0.35,0.08,0.73,0.1,1.13c0.02,0.4,0.03,0.87,0.03,1.42v6.86H268.79z"/>
	<path class="st0" d="M287.69,177.36v-11.64h11.21v1.56h-9.26v3.24h5.66v1.54h-5.66v3.7h9.35v1.6H287.69z"/>
	<path class="st0" d="M313.54,167.31h-8.24v3.25h7.33c1.04,0,1.74,0.19,2.12,0.57c0.38,0.38,0.57,1.1,0.57,2.17v1.31
		c0,1.07-0.19,1.8-0.56,2.18c-0.37,0.38-1.09,0.57-2.14,0.57h-6.79c-1.06,0-1.78-0.19-2.16-0.58s-0.57-1.11-0.57-2.17v-0.32
		l1.81-0.42v1.87h8.67v-3.5h-7.31c-1.06,0-1.77-0.19-2.15-0.58c-0.37-0.39-0.56-1.11-0.56-2.17v-1.01c0-1.06,0.19-1.79,0.56-2.17
		c0.37-0.39,1.09-0.58,2.15-0.58h6.2c1.04,0,1.75,0.19,2.14,0.57s0.59,1.04,0.59,1.99v0.24l-1.66,0.47V167.31z"/>
	<path class="st0" d="M325.73,167.31v10.05h-1.94v-10.05h-5.32v-1.59h12.6v1.59H325.73z"/>
	<path class="st0" d="M342.78,177.36v-11.64h11.21v1.56h-9.26v3.24h5.66v1.54h-5.66v3.7h9.35v1.6H342.78z"/>
	<path class="st0" d="M358.7,177.36v-11.64h1.95v10.02h8.81v1.62H358.7z"/>
	<path class="st0" d="M373.42,177.36v-11.64h11.21v1.56h-9.26v3.24h5.66v1.54h-5.66v3.7h9.35v1.6H373.42z"/>
	<path class="st0" d="M389.35,177.36v-11.64h1.95v4.99l7.26-4.99h2.84l-8.44,5.57l9.36,6.07h-3.25l-7.77-5.23v5.23H389.35z"/>
	<path class="st0" d="M410.72,167.31v10.05h-1.94v-10.05h-5.32v-1.59h12.6v1.59H410.72z"/>
	<path class="st0" d="M419.33,177.36v-11.64h9.38c0.87,0,1.5,0.18,1.89,0.53c0.39,0.36,0.58,0.93,0.58,1.72v2.6
		c0,0.79-0.19,1.36-0.58,1.71c-0.39,0.36-1.01,0.53-1.89,0.53h-1.71l5.32,4.54h-2.89l-4.73-4.54h-3.42v4.54H419.33z M427.95,167.23
		h-6.67v4.09h6.67c0.48,0,0.81-0.09,0.99-0.26s0.26-0.48,0.26-0.93v-1.7c0-0.44-0.09-0.75-0.27-0.93
		C428.76,167.32,428.43,167.23,427.95,167.23z"/>
	<path class="st0" d="M436.37,168.47c0-1.06,0.19-1.78,0.57-2.17c0.38-0.39,1.1-0.58,2.16-0.58h8.05c1.05,0,1.76,0.19,2.14,0.58
		c0.38,0.39,0.57,1.11,0.57,2.17v6.13c0,1.07-0.19,1.8-0.57,2.18c-0.38,0.38-1.09,0.57-2.14,0.57h-8.05c-1.06,0-1.79-0.19-2.16-0.58
		c-0.38-0.39-0.57-1.11-0.57-2.17V168.47z M438.3,175.74h9.64v-8.44h-9.64V175.74z"/>
	<path class="st0" d="M455.76,177.36v-11.64h1.22l8.71,7.79c0.2,0.18,0.41,0.39,0.63,0.64c0.22,0.25,0.45,0.52,0.69,0.83
		c-0.06-0.37-0.1-0.77-0.13-1.17c-0.03-0.41-0.04-0.97-0.04-1.69v-6.39h1.78v11.64h-1.09l-8.94-8.09c-0.04-0.04-0.11-0.1-0.2-0.18
		c-0.44-0.4-0.77-0.77-0.98-1.13c0.04,0.35,0.08,0.73,0.1,1.13c0.02,0.4,0.03,0.87,0.03,1.42v6.86H455.76z"/>
	<path class="st0" d="M474.65,177.36v-11.64h1.95v11.64H474.65z M474.7,163.86v-2.19h1.85v2.19H474.7z"/>
	<path class="st0" d="M482.64,177.36v-11.64h1.95v4.99l7.26-4.99h2.84l-8.44,5.57l9.36,6.07h-3.25l-7.77-5.23v5.23H482.64z"/>
	<path class="st0" d="M514.91,176.67c-0.29,0.27-0.57,0.46-0.83,0.55c-0.26,0.1-0.67,0.14-1.22,0.14h-3.81
		c-1.06,0-1.79-0.19-2.16-0.58s-0.57-1.11-0.57-2.17v-0.76c0-0.51,0.08-0.92,0.25-1.21c0.17-0.29,0.54-0.61,1.1-0.96l2.24-1.42
		c-0.34-0.3-0.58-0.59-0.73-0.86c-0.15-0.28-0.22-0.57-0.22-0.9v-0.65c0-0.77,0.2-1.32,0.61-1.64s1.11-0.48,2.11-0.48h2.19
		c1.05,0,1.76,0.17,2.14,0.51c0.38,0.34,0.57,0.95,0.57,1.84v0.62l-1.54,0.29v-1.83h-4.44v1.7l5.64,4.62l2.71-2.56l0.99,0.95
		l-2.62,2.49l3.7,3.02h-2.41l-2.39-1.96L514.91,176.67z M507.96,175.87h5.64l1.52-1.4l-4.17-3.34l-2.98,2.11V175.87z"/>
	<path class="st0" d="M536.97,177.36v-5.08l-5.9-6.56h2.41l4.55,5.19l4.36-5.19h2.37l-5.85,6.52v5.12H536.97z"/>
	<path class="st0" d="M544.15,177.36l6.35-11.64h2.08l6.46,11.64h-2.14l-1.49-2.86h-7.87l-1.49,2.86H544.15z M548.37,173.01h6.27
		l-3.14-5.96L548.37,173.01z"/>
	<path class="st0" d="M561.28,177.36v-0.79l8.62-9.26h-7.87v-1.59h10.98v0.66l-8.78,9.36h8.78v1.62H561.28z"/>
	<path class="st0" d="M578.18,177.36v-11.64h1.95v11.64H578.18z"/>
	<path class="st0" d="M586.16,177.36v-11.64h1.95v10.02h8.81v1.62H586.16z"/>
	<path class="st0" d="M600.88,177.36v-11.64h1.95v11.64H600.88z"/>
	<path class="st0" d="M610.43,167.8c0.03,0.23,0.05,0.47,0.07,0.72s0.02,0.58,0.02,0.99v7.85h-1.65v-11.64h1.59l5.66,7.58l5.27-7.58
		h1.78v11.64h-1.78v-7.85c0-0.1,0.01-0.36,0.04-0.78c0.03-0.41,0.04-0.72,0.05-0.93c-0.15,0.3-0.28,0.55-0.39,0.76
		c-0.11,0.21-0.21,0.37-0.3,0.5l-4.45,6.47h-0.5l-4.62-6.3c-0.01-0.01-0.03-0.03-0.06-0.08
		C610.82,168.69,610.58,168.24,610.43,167.8z"/>
	<path class="st0" d="M642.18,167.31v10.05h-1.94v-10.05h-5.32v-1.59h12.6v1.59H642.18z"/>
	<path class="st0" d="M650.79,177.36v-11.64H662v1.56h-9.26v3.24h5.66v1.54h-5.66v3.7h9.35v1.6H650.79z"/>
	<path class="st0" d="M666.71,177.36v-11.64h1.95v4.99l7.26-4.99h2.84l-8.44,5.57l9.36,6.07h-3.25l-7.77-5.23v5.23H666.71z"/>
	<path class="st0" d="M683.15,177.36v-11.64h1.22l8.71,7.79c0.2,0.18,0.41,0.39,0.63,0.64c0.22,0.25,0.45,0.52,0.69,0.83
		c-0.06-0.37-0.1-0.77-0.13-1.17c-0.03-0.41-0.04-0.97-0.04-1.69v-6.39h1.78v11.64h-1.09l-8.94-8.09c-0.04-0.04-0.11-0.1-0.2-0.18
		c-0.44-0.4-0.77-0.77-0.98-1.13c0.04,0.35,0.08,0.73,0.1,1.13c0.02,0.4,0.03,0.87,0.03,1.42v6.86H683.15z"/>
	<path class="st0" d="M701.89,168.47c0-1.06,0.19-1.78,0.57-2.17c0.38-0.39,1.1-0.58,2.16-0.58h8.05c1.05,0,1.76,0.19,2.14,0.58
		c0.38,0.39,0.57,1.11,0.57,2.17v6.13c0,1.07-0.19,1.8-0.57,2.18c-0.38,0.38-1.09,0.57-2.14,0.57h-8.05c-1.06,0-1.79-0.19-2.16-0.58
		c-0.38-0.39-0.57-1.11-0.57-2.17V168.47z M703.83,175.74h9.64v-8.44h-9.64V175.74z"/>
	<path class="st0" d="M721.28,177.36v-11.64h1.95v10.02h8.81v1.62H721.28z"/>
	<path class="st0" d="M735.46,168.47c0-1.06,0.19-1.78,0.57-2.17c0.38-0.39,1.1-0.58,2.16-0.58h8.05c1.05,0,1.76,0.19,2.14,0.58
		c0.38,0.39,0.57,1.11,0.57,2.17v6.13c0,1.07-0.19,1.8-0.57,2.18c-0.38,0.38-1.09,0.57-2.14,0.57h-8.05c-1.06,0-1.79-0.19-2.16-0.58
		c-0.38-0.39-0.57-1.11-0.57-2.17V168.47z M737.39,175.74h9.64v-8.44h-9.64V175.74z"/>
	<path class="st0" d="M756.82,177.36c-1.06,0-1.77-0.19-2.15-0.57c-0.37-0.38-0.56-1.11-0.56-2.18v-2.32l1.92-0.41v3.87h6.24v-10.02
		h1.94v8.89c0,1.06-0.19,1.79-0.57,2.17s-1.1,0.58-2.15,0.58H756.82z"/>
	<path class="st0" d="M770.09,177.36v-11.64h1.95v11.64H770.09z M770.13,163.86v-2.19h1.85v2.19H770.13z"/>
	<path class="st0" d="M778.07,177.36v-11.64h1.95v10.02h8.81v1.62H778.07z"/>
	<path class="st0" d="M792.79,177.36v-11.64H804v1.56h-9.26v3.24h5.66v1.54h-5.66v3.7h9.35v1.6H792.79z"/>
	<path class="st0" d="M808.72,177.36v-11.64h9.38c0.87,0,1.5,0.18,1.89,0.53c0.39,0.36,0.58,0.93,0.58,1.72v2.6
		c0,0.79-0.19,1.36-0.58,1.71c-0.39,0.36-1.01,0.53-1.89,0.53h-1.71l5.32,4.54h-2.89l-4.73-4.54h-3.42v4.54H808.72z M817.34,167.23
		h-6.67v4.09h6.67c0.48,0,0.81-0.09,0.99-0.26s0.26-0.48,0.26-0.93v-1.7c0-0.44-0.09-0.75-0.27-0.93
		C818.15,167.32,817.82,167.23,817.34,167.23z"/>
	<path class="st0" d="M825.91,177.36v-11.64h1.95v11.64H825.91z M825.95,163.86v-2.19h1.85v2.19H825.95z"/>
</g>
</svg>
