<?xml version="1.0" encoding="utf-8"?>
<!-- Generator: Adobe Illustrator 28.0.0, SVG Export Plug-In . SVG Version: 6.00 Build 0)  -->
<svg version="1.1" id="Layer_1" xmlns="http://www.w3.org/2000/svg" xmlns:xlink="http://www.w3.org/1999/xlink" x="0px" y="0px"
	 viewBox="0 0 850.39 226.77" style="enable-background:new 0 0 850.39 226.77;" xml:space="preserve">
<style type="text/css">
	.st0{fill:#FFFFFF;stroke:#FFFFFF;stroke-miterlimit:10;}
	.st1{fill:url(#SVGID_1_);}
	.st2{fill:url(#SVGID_00000076571509037236393850000016622505044556340135_);}
	.st3{fill:url(#SVGID_00000088096347138127638180000001863262019144250004_);}
</style>
<g>
	<g>
		<path class="st0" d="M366.15,100.06c-0.49-2.32-1.41-4.46-2.75-6.4c-1.35-1.94-3.22-3.59-5.59-4.94c-2.38-1.35-5.4-2.03-9.07-2.03
			h-58.49c-3.78,0-6.83,0.68-9.15,2.03c-2.32,1.35-4.16,3-5.51,4.94c-1.35,1.94-2.27,4.08-2.75,6.4c-0.49,2.32-0.73,4.46-0.73,6.4
			V134c0,2.16-0.76,4-2.27,5.51c-1.51,1.51-3.35,2.27-5.51,2.27c-2.16,0-4-0.75-5.51-2.27c-1.51-1.51-2.27-3.35-2.27-5.51v-27.54
			c0-4.1,0.67-8.24,2.03-12.39c1.35-4.16,3.32-7.94,5.91-11.34c2.59-3.4,5.72-6.18,9.4-8.34c3.67-2.16,7.83-3.24,12.48-3.24h67.89
			c4.43,0.22,8.37,1.43,11.83,3.65c3.46,2.22,6.4,5,8.83,8.34c2.43,3.35,4.29,7.08,5.59,11.18c1.3,4.11,1.94,8.16,1.94,12.15V134
			c0,2.16-0.76,4-2.27,5.51c-1.51,1.51-3.35,2.27-5.51,2.27c-2.16,0-4-0.75-5.51-2.27c-1.51-1.51-2.27-3.35-2.27-5.51v-27.54
			C366.88,104.51,366.64,102.38,366.15,100.06z"/>
		<path class="st0" d="M432.01,86.69c-3.78,0-6.83,0.68-9.15,2.03c-2.32,1.35-4.16,3-5.51,4.94c-1.35,1.94-2.27,4.08-2.75,6.4
			c-0.49,2.32-0.73,4.46-0.73,6.4c0,1.94,0.24,4.08,0.73,6.4c0.49,2.32,1.4,4.46,2.75,6.4c1.35,1.94,3.18,3.59,5.51,4.94
			c2.32,1.35,5.37,2.03,9.15,2.03h89.27c2.16,0,3.99,0.76,5.51,2.27c1.51,1.51,2.27,3.35,2.27,5.51c0,2.16-0.76,4-2.27,5.51
			c-1.51,1.51-3.35,2.27-5.51,2.27h-94.46c-4.43,0-8.37-1.08-11.83-3.24c-3.46-2.16-6.4-4.94-8.83-8.34
			c-2.43-3.4-4.29-7.21-5.59-11.42s-1.94-8.32-1.94-12.31c0-4.1,0.67-8.24,2.03-12.39c1.35-4.16,3.32-7.94,5.91-11.34
			c2.59-3.4,5.72-6.18,9.4-8.34c3.67-2.16,7.83-3.24,12.48-3.24h92.84c2.16,0,3.99,0.76,5.51,2.27c1.51,1.51,2.27,3.35,2.27,5.51
			c0,2.16-0.76,4-2.27,5.51c-1.51,1.51-3.35,2.27-5.51,2.27H432.01z M519.99,100.95c1.51,1.51,2.27,3.35,2.27,5.51
			c0,2.16-0.76,4-2.27,5.51c-1.51,1.51-3.35,2.27-5.51,2.27H433.8c-2.16,0-4-0.75-5.51-2.27c-1.51-1.51-2.27-3.35-2.27-5.51
			c0-2.16,0.75-3.99,2.27-5.51c1.51-1.51,3.35-2.27,5.51-2.27h80.69C516.64,98.68,518.48,99.44,519.99,100.95z"/>
		<path class="st0" d="M558.39,112.53c-2.59-1.13-4.86-2.67-6.81-4.62c-1.94-1.94-3.48-4.21-4.62-6.81c-1.13-2.59-1.7-5.4-1.7-8.42
			c0-3.02,0.57-5.83,1.7-8.43c1.13-2.59,2.67-4.86,4.62-6.8c1.94-1.94,4.21-3.48,6.81-4.62c2.59-1.13,5.4-1.7,8.42-1.7h98.35
			c2.16,0,3.99,0.76,5.51,2.27c1.51,1.51,2.27,3.35,2.27,5.51c0,2.16-0.76,4-2.27,5.51c-1.51,1.51-3.35,2.27-5.51,2.27h-98.67
			c-1.62,0-3.05,0.57-4.29,1.7c-1.24,1.13-1.86,2.57-1.86,4.29c0,1.62,0.62,3.02,1.86,4.21c1.24,1.19,2.67,1.78,4.29,1.78h89.6
			c3.02,0,5.86,0.57,8.51,1.7c2.65,1.13,4.94,2.67,6.89,4.62c1.94,1.94,3.48,4.24,4.62,6.89c1.13,2.65,1.7,5.48,1.7,8.51
			c0,3.03-0.57,5.83-1.7,8.43c-1.13,2.59-2.67,4.86-4.62,6.8c-1.94,1.94-4.24,3.46-6.89,4.54c-2.65,1.08-5.48,1.62-8.51,1.62H557.9
			c-2.16,0-4-0.75-5.51-2.27c-1.51-1.51-2.27-3.35-2.27-5.51c0-2.16,0.75-4,2.27-5.51c1.51-1.51,3.35-2.27,5.51-2.27h98.83
			c1.62,0,3.02-0.57,4.21-1.7c1.19-1.13,1.78-2.51,1.78-4.13c0-1.73-0.59-3.18-1.78-4.37c-1.19-1.19-2.59-1.78-4.21-1.78h-89.92
			C563.79,114.23,560.98,113.67,558.39,112.53z"/>
		<path class="st0" d="M813.24,71.14c2.16,0,4,0.76,5.51,2.27c1.51,1.51,2.27,3.35,2.27,5.51c0,2.05-0.7,3.81-2.11,5.27
			c-1.4,1.46-3.08,2.3-5.02,2.51h-32.57c-3.24,0.22-5.91,1-8.02,2.35c-2.11,1.35-3.75,3-4.94,4.94c-1.19,1.94-2,4.05-2.43,6.32
			c-0.43,2.27-0.65,4.32-0.65,6.16V134c0,2.16-0.76,4-2.27,5.51c-1.51,1.51-3.35,2.27-5.51,2.27c-2.16,0-4-0.75-5.51-2.27
			c-1.51-1.51-2.27-3.35-2.27-5.51v-27.54c0-3.35,0.43-6.72,1.3-10.13c0.86-3.4,2.16-6.61,3.89-9.64h-53.14
			c-2.16,0-4-0.75-5.51-2.27c-1.51-1.51-2.27-3.35-2.27-5.51c0-2.16,0.75-3.99,2.27-5.51c1.51-1.51,3.35-2.27,5.51-2.27H813.24z"/>
	</g>
	<g>
		<path class="st0" d="M181.4,193.53c-16.6-18.11-32.82-35.81-49.03-53.5c1.93-1.84,3.67-3.51,5.78-5.53
			c18.04,19.65,36.31,39.55,54.57,59.44c-27.49,27.95-85.74,39.79-131.46,7.46C13.52,167.66,1.77,101.07,35.33,53.25
			C69.16,5.05,135.54-6.91,183.67,26.74c49.31,34.48,56.87,97.6,31.98,139.45c-0.75-0.67-1.41-1.38-2.18-1.93
			c-3.32-2.34-3.07-4.74-1.38-8.34c27.38-58.05-8.42-127.48-71.34-138.66C86.66,7.66,35.62,43.07,25.65,97.11
			c-9.67,52.43,26.12,104.31,78.62,113.96c26.22,4.82,50.53-0.06,72.9-14.56C178.49,195.65,179.74,194.71,181.4,193.53z"/>
		<path class="st0" d="M65.08,54.83c19.57,21.33,38.44,41.89,57.49,62.67c-2.05,1.67-4.02,3.28-6.21,5.08
			c-13.77-14.99-28.1-30.59-43.12-46.94c0,32.38,0,63.7,0,95.44c-2.86,0-5.35,0-8.16,0C65.08,132.63,65.08,94.26,65.08,54.83z"/>
		<path class="st0" d="M174.39,157.57c-5.18-4.6-8.28-9.12-8.14-16.44c0.51-27.33,0.21-54.67,0.21-82.01c0-1.56,0-3.12,0-5.01
			c2.77,0,5.15,0,7.93,0C174.39,88.34,174.39,122.66,174.39,157.57z"/>
	</g>
	<path class="st0" d="M360.46,157.21c50.37-3.4,127.15-1.58,178.32-2c29.48,0,105.22,0,133.74,0c6.99,0.3,26.58,1.14,33.44,1.43
		c0,0,11.15,0.57,11.15,0.57l-11.15,0.56c-6.83,0.29-26.3,1.13-33.44,1.44c-28.18,0-104.56,0-133.74,0
		C487.45,158.79,411.11,160.62,360.46,157.21L360.46,157.21z"/>
	<g>
		<path class="st0" d="M260.11,182.59V171.9h1.12l8,7.15c0.18,0.16,0.38,0.36,0.58,0.59c0.21,0.23,0.42,0.48,0.63,0.76
			c-0.05-0.34-0.09-0.7-0.12-1.08c-0.03-0.37-0.04-0.89-0.04-1.55v-5.87h1.64v10.69h-1l-8.22-7.44c-0.04-0.03-0.1-0.09-0.18-0.16
			c-0.4-0.36-0.7-0.71-0.9-1.04c0.04,0.32,0.07,0.67,0.09,1.04c0.02,0.37,0.03,0.8,0.03,1.3v6.3H260.11z"/>
		<path class="st0" d="M277.47,182.59V171.9h10.3v1.44h-8.51v2.97h5.2v1.42h-5.2v3.4h8.59v1.47H277.47z"/>
		<path class="st0" d="M301.23,173.35h-7.57v2.98h6.74c0.95,0,1.6,0.18,1.95,0.53c0.35,0.35,0.53,1.02,0.53,1.99v1.2
			c0,0.99-0.17,1.65-0.52,2s-1,0.53-1.96,0.53h-6.24c-0.97,0-1.63-0.18-1.98-0.53c-0.35-0.35-0.53-1.02-0.53-2v-0.29l1.66-0.38v1.72
			h7.96v-3.22h-6.72c-0.97,0-1.63-0.18-1.97-0.53c-0.34-0.35-0.52-1.02-0.52-2v-0.93c0-0.98,0.17-1.64,0.52-2
			c0.34-0.35,1-0.53,1.97-0.53h5.7c0.95,0,1.61,0.17,1.97,0.52c0.36,0.35,0.54,0.96,0.54,1.83v0.22l-1.53,0.44V173.35z"/>
		<path class="st0" d="M312.43,173.35v9.24h-1.78v-9.24h-4.89v-1.46h11.57v1.46H312.43z"/>
		<path class="st0" d="M335.84,182.59V171.9h10.3v1.44h-8.51v2.97h5.2v1.42h-5.2v3.4h8.59v1.47H335.84z"/>
		<path class="st0" d="M350.47,182.59V171.9h1.79v9.21h8.09v1.49H350.47z"/>
		<path class="st0" d="M364,182.59V171.9h10.3v1.44h-8.51v2.97h5.2v1.42h-5.2v3.4h8.59v1.47H364z"/>
		<path class="st0" d="M387.68,173.35h-7.42v7.75h7.42v-2.68l1.79,0.37v1.26c0,0.99-0.17,1.65-0.52,2c-0.34,0.35-1,0.53-1.97,0.53
			h-5.99c-0.97,0-1.63-0.18-1.98-0.53c-0.35-0.35-0.53-1.02-0.53-2v-5.64c0-0.98,0.18-1.64,0.53-2c0.35-0.35,1.01-0.53,1.98-0.53
			h5.99c0.97,0,1.63,0.18,1.97,0.53c0.34,0.35,0.52,1.02,0.52,2v1.01l-1.79,0.33V173.35z"/>
		<path class="st0" d="M398.31,173.35v9.24h-1.78v-9.24h-4.89v-1.46h11.57v1.46H398.31z"/>
		<path class="st0" d="M406.23,182.59V171.9h8.62c0.8,0,1.38,0.16,1.74,0.49c0.35,0.33,0.53,0.86,0.53,1.58v2.39
			c0,0.72-0.18,1.25-0.53,1.57c-0.35,0.33-0.93,0.49-1.74,0.49h-1.57l4.89,4.17h-2.65l-4.35-4.17h-3.15v4.17H406.23z M414.15,173.28
			h-6.13v3.75h6.13c0.45,0,0.75-0.08,0.91-0.24c0.16-0.16,0.24-0.45,0.24-0.85v-1.56c0-0.4-0.08-0.69-0.25-0.86
			C414.89,173.36,414.59,173.28,414.15,173.28z"/>
		<path class="st0" d="M421.88,174.43c0-0.97,0.17-1.64,0.52-1.99c0.35-0.36,1.01-0.54,1.99-0.54h7.4c0.96,0,1.62,0.18,1.97,0.53
			c0.35,0.35,0.52,1.02,0.52,2v5.64c0,0.99-0.17,1.65-0.52,2c-0.35,0.35-1,0.53-1.97,0.53h-7.4c-0.98,0-1.64-0.18-1.99-0.54
			c-0.35-0.36-0.52-1.02-0.52-1.99V174.43z M423.66,181.1h8.85v-7.75h-8.85V181.1z"/>
		<path class="st0" d="M439.7,182.59V171.9h1.12l8,7.15c0.18,0.16,0.38,0.36,0.58,0.59c0.21,0.23,0.42,0.48,0.63,0.76
			c-0.05-0.34-0.09-0.7-0.12-1.08c-0.03-0.37-0.04-0.89-0.04-1.55v-5.87h1.64v10.69h-1l-8.22-7.44c-0.04-0.03-0.1-0.09-0.18-0.16
			c-0.4-0.36-0.7-0.71-0.9-1.04c0.04,0.32,0.07,0.67,0.09,1.04c0.02,0.37,0.03,0.8,0.03,1.3v6.3H439.7z"/>
		<path class="st0" d="M457.06,182.59V171.9h1.79v10.69H457.06z"/>
		<path class="st0" d="M473.45,173.35h-7.42v7.75h7.42v-2.68l1.79,0.37v1.26c0,0.99-0.17,1.65-0.52,2c-0.34,0.35-1,0.53-1.97,0.53
			h-5.99c-0.97,0-1.63-0.18-1.98-0.53c-0.35-0.35-0.53-1.02-0.53-2v-5.64c0-0.98,0.18-1.64,0.53-2c0.35-0.35,1.01-0.53,1.98-0.53
			h5.99c0.97,0,1.63,0.18,1.97,0.53c0.34,0.35,0.52,1.02,0.52,2v1.01l-1.79,0.33V173.35z"/>
		<path class="st0" d="M494.48,181.95c-0.27,0.25-0.52,0.42-0.76,0.51c-0.24,0.09-0.61,0.13-1.12,0.13h-3.5
			c-0.98,0-1.64-0.18-1.99-0.54c-0.35-0.36-0.52-1.02-0.52-1.99v-0.7c0-0.47,0.08-0.84,0.23-1.11c0.15-0.27,0.49-0.56,1.01-0.88
			l2.05-1.31c-0.31-0.28-0.53-0.54-0.67-0.79c-0.14-0.25-0.2-0.53-0.2-0.82v-0.6c0-0.71,0.19-1.21,0.56-1.51
			c0.37-0.3,1.02-0.45,1.94-0.45h2.01c0.96,0,1.62,0.16,1.97,0.47c0.35,0.31,0.52,0.87,0.52,1.69v0.57l-1.42,0.26v-1.68h-4.08v1.56
			l5.18,4.25l2.49-2.35l0.91,0.87l-2.41,2.29l3.4,2.77h-2.22l-2.2-1.8L494.48,181.95z M488.1,181.22h5.18l1.4-1.29l-3.83-3.07
			l-2.74,1.94V181.22z"/>
		<path class="st0" d="M520.55,173.35h-7.57v2.98h6.74c0.95,0,1.6,0.18,1.95,0.53c0.35,0.35,0.53,1.02,0.53,1.99v1.2
			c0,0.99-0.17,1.65-0.52,2c-0.34,0.35-1,0.53-1.96,0.53h-6.24c-0.97,0-1.63-0.18-1.98-0.53c-0.35-0.35-0.53-1.02-0.53-2v-0.29
			l1.66-0.38v1.72h7.96v-3.22h-6.72c-0.97,0-1.63-0.18-1.97-0.53c-0.34-0.35-0.52-1.02-0.52-2v-0.93c0-0.98,0.17-1.64,0.52-2
			c0.34-0.35,1-0.53,1.97-0.53h5.7c0.95,0,1.61,0.17,1.97,0.52c0.36,0.35,0.54,0.96,0.54,1.83v0.22l-1.53,0.44V173.35z"/>
		<path class="st0" d="M527.46,174.43c0-0.97,0.17-1.64,0.52-1.99c0.35-0.36,1.01-0.54,1.99-0.54h7.4c0.96,0,1.62,0.18,1.97,0.53
			c0.35,0.35,0.52,1.02,0.52,2v5.64c0,0.99-0.17,1.65-0.52,2c-0.35,0.35-1,0.53-1.97,0.53h-7.4c-0.98,0-1.64-0.18-1.99-0.54
			c-0.35-0.36-0.52-1.02-0.52-1.99V174.43z M529.24,181.1h8.85v-7.75h-8.85V181.1z"/>
		<path class="st0" d="M545.28,182.59V171.9h10.18v1.46h-8.39v3.5h4.79v1.43h-4.79v4.31H545.28z"/>
		<path class="st0" d="M563.78,173.35v9.24H562v-9.24h-4.89v-1.46h11.57v1.46H563.78z"/>
		<path class="st0" d="M573.47,182.59l-3.88-10.69h1.8l2.89,8.5l3.16-8.5h1.09l3.05,8.5l2.92-8.5h1.6l-3.87,10.69h-1.33l-2.96-8.08
			l-3.07,8.08H573.47z"/>
		<path class="st0" d="M586.81,182.59l5.84-10.69h1.91l5.94,10.69h-1.96l-1.37-2.63h-7.23l-1.37,2.63H586.81z M590.69,178.59h5.76
			l-2.88-5.47L590.69,178.59z"/>
		<path class="st0" d="M603.96,182.59V171.9h8.62c0.8,0,1.38,0.16,1.74,0.49c0.35,0.33,0.53,0.86,0.53,1.58v2.39
			c0,0.72-0.18,1.25-0.53,1.57c-0.35,0.33-0.93,0.49-1.74,0.49h-1.57l4.89,4.17h-2.65l-4.35-4.17h-3.15v4.17H603.96z M611.88,173.28
			h-6.13v3.75h6.13c0.45,0,0.75-0.08,0.91-0.24c0.16-0.16,0.24-0.45,0.24-0.85v-1.56c0-0.4-0.08-0.69-0.25-0.86
			C612.62,173.36,612.32,173.28,611.88,173.28z"/>
		<path class="st0" d="M619.75,182.59V171.9h10.3v1.44h-8.51v2.97h5.2v1.42h-5.2v3.4h8.59v1.47H619.75z"/>
		<path class="st0" d="M646.28,173.35v9.24h-1.78v-9.24h-4.89v-1.46h11.57v1.46H646.28z"/>
		<path class="st0" d="M654.19,182.59V171.9h10.3v1.44h-8.51v2.97h5.2v1.42h-5.2v3.4h8.59v1.47H654.19z"/>
		<path class="st0" d="M677.88,173.35h-7.42v7.75h7.42v-2.68l1.79,0.37v1.26c0,0.99-0.17,1.65-0.52,2c-0.34,0.35-1,0.53-1.97,0.53
			h-5.99c-0.97,0-1.63-0.18-1.98-0.53c-0.35-0.35-0.53-1.02-0.53-2v-5.64c0-0.98,0.18-1.64,0.53-2c0.35-0.35,1.01-0.53,1.98-0.53
			h5.99c0.97,0,1.63,0.18,1.97,0.53c0.34,0.35,0.52,1.02,0.52,2v1.01l-1.79,0.33V173.35z"/>
		<path class="st0" d="M684.36,182.59V171.9h1.79v4.37h8.43v-4.37h1.78v10.69h-1.78v-4.85h-8.43v4.85H684.36z"/>
		<path class="st0" d="M701.92,182.59V171.9h1.12l8,7.15c0.18,0.16,0.38,0.36,0.58,0.59c0.21,0.23,0.42,0.48,0.63,0.76
			c-0.05-0.34-0.09-0.7-0.12-1.08c-0.03-0.37-0.04-0.89-0.04-1.55v-5.87h1.64v10.69h-1l-8.22-7.44c-0.04-0.03-0.1-0.09-0.18-0.16
			c-0.4-0.36-0.7-0.71-0.9-1.04c0.04,0.32,0.07,0.67,0.09,1.04s0.03,0.8,0.03,1.3v6.3H701.92z"/>
		<path class="st0" d="M719.14,174.43c0-0.97,0.17-1.64,0.52-1.99c0.35-0.36,1.01-0.54,1.99-0.54h7.4c0.96,0,1.62,0.18,1.97,0.53
			c0.35,0.35,0.52,1.02,0.52,2v5.64c0,0.99-0.17,1.65-0.52,2c-0.35,0.35-1,0.53-1.97,0.53h-7.4c-0.98,0-1.64-0.18-1.99-0.54
			c-0.35-0.36-0.52-1.02-0.52-1.99V174.43z M720.92,181.1h8.85v-7.75h-8.85V181.1z"/>
		<path class="st0" d="M736.95,182.59V171.9h1.79v9.21h8.09v1.49H736.95z"/>
		<path class="st0" d="M749.97,174.43c0-0.97,0.17-1.64,0.52-1.99c0.35-0.36,1.01-0.54,1.99-0.54h7.4c0.96,0,1.62,0.18,1.97,0.53
			c0.35,0.35,0.52,1.02,0.52,2v5.64c0,0.99-0.17,1.65-0.52,2c-0.35,0.35-1,0.53-1.97,0.53h-7.4c-0.98,0-1.64-0.18-1.99-0.54
			c-0.35-0.36-0.52-1.02-0.52-1.99V174.43z M751.76,181.1h8.85v-7.75h-8.85V181.1z"/>
		<path class="st0" d="M777.81,173.35h-8.38v7.75h8.38v-3.14h-4.33v-1.37h6.11v3.46c0,0.98-0.18,1.64-0.53,2
			c-0.35,0.35-1.01,0.53-1.98,0.53h-6.92c-0.98,0-1.64-0.18-1.99-0.54c-0.35-0.36-0.52-1.02-0.52-1.99v-5.64
			c0-0.97,0.17-1.64,0.52-1.99c0.35-0.36,1.01-0.54,1.99-0.54h6.92c0.96,0,1.62,0.17,1.97,0.52c0.36,0.35,0.54,0.98,0.54,1.89v0.26
			l-1.78,0.35V173.35z"/>
		<path class="st0" d="M784.72,182.59V171.9h1.79v10.69H784.72z"/>
		<path class="st0" d="M792.05,182.59V171.9h10.3v1.44h-8.51v2.97h5.2v1.42h-5.2v3.4h8.59v1.47H792.05z"/>
		<path class="st0" d="M815.81,173.35h-7.57v2.98h6.74c0.95,0,1.6,0.18,1.95,0.53c0.35,0.35,0.53,1.02,0.53,1.99v1.2
			c0,0.99-0.17,1.65-0.52,2c-0.34,0.35-1,0.53-1.96,0.53h-6.24c-0.97,0-1.63-0.18-1.98-0.53c-0.35-0.35-0.53-1.02-0.53-2v-0.29
			l1.66-0.38v1.72h7.96v-3.22h-6.72c-0.97,0-1.63-0.18-1.97-0.53c-0.34-0.35-0.52-1.02-0.52-2v-0.93c0-0.98,0.17-1.64,0.52-2
			c0.34-0.35,1-0.53,1.97-0.53h5.7c0.95,0,1.61,0.17,1.97,0.52c0.36,0.35,0.54,0.96,0.54,1.83v0.22l-1.53,0.44V173.35z"/>
	</g>
</g>
<g>
	<linearGradient id="SVGID_1_" gradientUnits="userSpaceOnUse" x1="1143.5316" y1="127.559" x2="1422.1379" y2="127.559">
		<stop  offset="0" style="stop-color:#142036"/>
		<stop  offset="0.0914" style="stop-color:#114B8A"/>
		<stop  offset="0.1115" style="stop-color:#154379"/>
		<stop  offset="0.14" style="stop-color:#193A68"/>
		<stop  offset="0.1711" style="stop-color:#1B365E"/>
		<stop  offset="0.2099" style="stop-color:#1C345B"/>
		<stop  offset="0.3436" style="stop-color:#316BB0"/>
		<stop  offset="0.4938" style="stop-color:#1B355C"/>
		<stop  offset="0.5957" style="stop-color:#1B3C6B"/>
		<stop  offset="0.744" style="stop-color:#17243E"/>
		<stop  offset="0.7829" style="stop-color:#182A49"/>
		<stop  offset="0.8512" style="stop-color:#1A3967"/>
		<stop  offset="0.8913" style="stop-color:#1B437B"/>
		<stop  offset="0.9165" style="stop-color:#1A3D70"/>
		<stop  offset="0.9608" style="stop-color:#162E52"/>
		<stop  offset="1" style="stop-color:#131E33"/>
	</linearGradient>
	<path class="st1" d="M1359.33,231.14c-21.68-23.66-42.87-46.78-64.05-69.88c2.52-2.41,4.79-4.58,7.55-7.22
		c23.57,25.67,47.43,51.66,71.28,77.64c-35.91,36.51-111.99,51.97-171.72,9.75c-62.35-44.08-77.71-131.06-33.87-193.52
		c44.19-62.97,130.89-78.58,193.76-34.63c64.41,45.04,74.29,127.48,41.77,182.15c-0.98-0.88-1.84-1.81-2.85-2.52
		c-4.33-3.05-4.01-6.19-1.8-10.89c35.76-75.82-10.99-166.52-93.18-181.12c-70.66-12.55-137.32,33.69-150.34,104.28
		c-12.63,68.48,34.11,136.25,102.7,148.85c34.25,6.29,66-0.08,95.22-19.02C1355.53,233.91,1357.16,232.67,1359.33,231.14z"/>
	
		<linearGradient id="SVGID_00000162326846802873170700000000388283050069188258_" gradientUnits="userSpaceOnUse" x1="1207.3945" y1="125.8806" x2="1282.4918" y2="125.8806">
		<stop  offset="0" style="stop-color:#142036"/>
		<stop  offset="0.0914" style="stop-color:#114B8A"/>
		<stop  offset="0.1115" style="stop-color:#154379"/>
		<stop  offset="0.14" style="stop-color:#193A68"/>
		<stop  offset="0.1711" style="stop-color:#1B365E"/>
		<stop  offset="0.2099" style="stop-color:#1C345B"/>
		<stop  offset="0.3436" style="stop-color:#316BB0"/>
		<stop  offset="0.4938" style="stop-color:#1B355C"/>
		<stop  offset="0.5957" style="stop-color:#1B3C6B"/>
		<stop  offset="0.744" style="stop-color:#17243E"/>
		<stop  offset="0.7829" style="stop-color:#182A49"/>
		<stop  offset="0.8512" style="stop-color:#1A3967"/>
		<stop  offset="0.8913" style="stop-color:#1B437B"/>
		<stop  offset="0.9165" style="stop-color:#1A3D70"/>
		<stop  offset="0.9608" style="stop-color:#162E52"/>
		<stop  offset="1" style="stop-color:#131E33"/>
	</linearGradient>
	<path style="fill:url(#SVGID_00000162326846802873170700000000388283050069188258_);" d="M1207.39,49.96
		c25.56,27.86,50.21,54.72,75.1,81.85c-2.67,2.18-5.24,4.29-8.12,6.64c-17.99-19.58-36.71-39.95-56.33-61.31
		c0,42.29,0,83.21,0,124.66c-3.73,0-6.98,0-10.65,0C1207.39,151.59,1207.39,101.47,1207.39,49.96z"/>
	
		<linearGradient id="SVGID_00000092449598526472405670000009367163651172576950_" gradientUnits="userSpaceOnUse" x1="1339.5403" y1="116.588" x2="1350.1775" y2="116.588">
		<stop  offset="0" style="stop-color:#142036"/>
		<stop  offset="0.0914" style="stop-color:#114B8A"/>
		<stop  offset="0.1115" style="stop-color:#154379"/>
		<stop  offset="0.14" style="stop-color:#193A68"/>
		<stop  offset="0.1711" style="stop-color:#1B365E"/>
		<stop  offset="0.2099" style="stop-color:#1C345B"/>
		<stop  offset="0.3436" style="stop-color:#316BB0"/>
		<stop  offset="0.4938" style="stop-color:#1B355C"/>
		<stop  offset="0.5957" style="stop-color:#1B3C6B"/>
		<stop  offset="0.744" style="stop-color:#17243E"/>
		<stop  offset="0.7829" style="stop-color:#182A49"/>
		<stop  offset="0.8512" style="stop-color:#1A3967"/>
		<stop  offset="0.8913" style="stop-color:#1B437B"/>
		<stop  offset="0.9165" style="stop-color:#1A3D70"/>
		<stop  offset="0.9608" style="stop-color:#162E52"/>
		<stop  offset="1" style="stop-color:#131E33"/>
	</linearGradient>
	<path style="fill:url(#SVGID_00000092449598526472405670000009367163651172576950_);" d="M1350.18,184.16
		c-6.77-6.01-10.81-11.92-10.63-21.47c0.67-35.7,0.27-71.42,0.27-107.13c0-2.04,0-4.08,0-6.55c3.61,0,6.72,0,10.36,0
		C1350.18,93.74,1350.18,138.56,1350.18,184.16z"/>
</g>
</svg>
